<?xml version="1.0" encoding="UTF-8" standalone="no"?>
<!-- Created with Inkscape (http://www.inkscape.org/) -->

<svg
   width="50mm"
   height="50mm"
   viewBox="0 0 50 50"
   version="1.1"
   id="svg1"
   xml:space="preserve"
   inkscape:version="1.4.3 (0d15f75, 2025-12-25)"
   sodipodi:docname="council-community.svg"
   xmlns:inkscape="http://www.inkscape.org/namespaces/inkscape"
   xmlns:sodipodi="http://sodipodi.sourceforge.net/DTD/sodipodi-0.dtd"
   xmlns="http://www.w3.org/2000/svg"
   xmlns:svg="http://www.w3.org/2000/svg"><sodipodi:namedview
     id="namedview1"
     pagecolor="#505050"
     bordercolor="#eeeeee"
     borderopacity="1"
     inkscape:showpageshadow="0"
     inkscape:pageopacity="0"
     inkscape:pagecheckerboard="0"
     inkscape:deskcolor="#505050"
     inkscape:document-units="mm"
     inkscape:zoom="1.16"
     inkscape:cx="170.25862"
     inkscape:cy="228.87931"
     inkscape:window-width="1920"
     inkscape:window-height="1009"
     inkscape:window-x="1912"
     inkscape:window-y="-8"
     inkscape:window-maximized="1"
     inkscape:current-layer="layer1" /><defs
     id="defs1" /><g
     inkscape:label="Layer 1"
     inkscape:groupmode="layer"
     id="layer1"><path
       style="fill:#ffffff;stroke-width:1"
       d="M 17.91734,46.542228 C 17.281567,46.285953 16.581477,45.964783 14.093672,44.788099 13.32894,44.426396 12.202696,43.895107 11.590908,43.60746 8.0068509,41.922315 7.9822437,41.907247 7.5026967,41.104144 7.160672,40.53135 7.111313,39.387375 7.398924,38.699024 c 0.2397628,-0.573836 1.0320665,-1.271189 1.6915563,-1.48884 0.9578427,-0.316116 0.8894662,-0.342705 9.3452587,3.633988 l 1.144091,0.538056 h 10.645295 c 10.171578,0 10.668252,0.01166 11.161165,0.26329 1.029712,0.525543 1.47302,1.353867 1.393439,2.603651 -0.04583,0.719886 -0.130722,0.969379 -0.47411,1.393657 -0.230052,0.284236 -0.665218,0.646335 -0.967037,0.804665 -0.540251,0.283407 -0.721259,0.28833 -11.672157,0.317409 -10.46002,0.02777 -11.160709,0.01445 -11.749085,-0.222672 z m 3.956881,-7.534991 c -0.161579,-0.312451 -0.284844,-0.402822 -0.455459,-0.333906 -1.753432,0.708274 -3.395583,-1.0134 -2.549132,-2.67258 0.157983,-0.309678 0.399408,-0.611822 0.536493,-0.671432 0.182993,-0.07957 0.06444,-0.137669 -0.445965,-0.218544 -0.539352,-0.08546 -0.795545,-0.219346 -1.142746,-0.597185 -0.760597,-0.827713 -0.775972,-1.795293 -0.04181,-2.631456 l 0.400715,-0.45639 -0.475361,-0.01347 c -1.432408,-0.0406 -2.339777,-1.700945 -1.596103,-2.920618 0.149657,-0.245455 0.523664,-0.574613 0.831118,-0.731464 l 0.559008,-0.285186 -0.292562,-0.728481 c -0.160906,-0.400664 -0.323451,-0.837978 -0.361206,-0.971805 -0.08242,-0.292181 -0.01067,-0.289068 -0.739056,-0.03207 -0.329322,0.116188 -0.643025,0.163123 -0.697117,0.104282 -0.0541,-0.05884 -0.487474,-1.139365 -0.963071,-2.401176 -0.475594,-1.261813 -1.142807,-3.030142 -1.482694,-3.929623 -0.339886,-0.899479 -0.580836,-1.695511 -0.535443,-1.768958 0.04539,-0.07344 0.332777,-0.208514 0.638631,-0.300151 0.420179,-0.125894 0.534375,-0.220283 0.467214,-0.386199 -0.04889,-0.12077 -0.218714,-0.574726 -0.377393,-1.008785 l -0.288508,-0.789197 1.60785,-1.85261 c 1.730773,-1.994243 1.741447,-2.031031 0.595346,-2.051615 -1.140817,-0.0205 -2.155158,-0.924592 -2.155158,-1.9209385 0,-0.6642358 0.382879,-1.4066288 0.892648,-1.7308205 0.384604,-0.2445926 0.584152,-0.2630743 1.957721,-0.1813239 0.841208,0.050072 1.967452,0.1408215 2.502766,0.2016646 1.08482,0.1233153 0.864488,0.2439817 2.126548,-1.164649 l 0.488934,-0.5457175 4.439921,0.5219675 c 2.441957,0.2870821 4.465292,0.4965983 4.496299,0.4655913 0.03101,-0.031005 0.119965,-0.3916842 0.197687,-0.8015052 0.1557,-0.8210068 0.07382,-0.9639714 -0.556474,-0.9716932 -0.191183,-0.0023 -0.435177,-0.059712 -0.542208,-0.1274701 -0.289933,-0.1835722 0.20105,-0.9480729 0.943809,-1.4695905 0.562628,-0.3950425 0.6698,-0.4183951 1.870404,-0.4075662 1.47297,0.013302 2.310595,0.3236859 3.003703,1.1130927 0.390914,0.4452243 0.826858,1.5093571 0.678938,1.6572748 -0.0378,0.037804 -0.375863,0.011331 -0.751241,-0.058776 -0.876926,-0.1638292 -0.879028,-0.1608567 -0.951024,1.342544 -0.0077,0.1626632 0.121854,0.2651878 0.395606,0.3128455 0.349827,0.060894 0.458971,0.198211 0.774733,0.9746623 0.202148,0.4970778 0.456896,0.9138126 0.566106,0.9260784 0.109209,0.012317 1.011961,0.098994 2.006115,0.1927276 2.375931,0.2240154 2.801374,0.4543059 3.137696,1.6984159 0.187521,0.693678 -0.212666,1.640542 -0.868798,2.05561 -0.405587,0.256576 -0.608388,0.283323 -1.677968,0.221301 -0.669141,-0.03881 -1.216621,-0.04628 -1.216621,-0.0166 0,0.02968 0.06075,0.197674 0.134975,0.373337 0.704374,1.666664 1.94327,5.176395 1.854622,5.254054 -0.0619,0.05423 -1.113636,0.4786 -2.33721,0.943063 -1.223573,0.464463 -3.257068,1.240339 -4.51888,1.724171 l -2.2942,0.87969 0.657672,0.07561 c 1.62944,0.187317 2.270885,2.123019 1.087684,3.282329 l -0.404379,0.396214 0.537157,0.0064 c 1.116773,0.01347 1.806491,0.771867 1.806491,1.986467 0,0.594459 -0.06958,0.787965 -0.431531,1.20021 l -0.43153,0.491488 0.466291,5.19e-4 c 0.55889,6.22e-4 1.263981,0.403525 1.597816,0.913021 0.319237,0.487218 0.319237,1.578889 0,2.066107 -0.209756,0.320126 -0.872829,0.825017 -1.251592,0.953011 -0.06603,0.02232 0.325019,1.188222 0.869014,2.590899 0.543996,1.402678 0.989084,2.573481 0.989084,2.601784 0,0.0283 -2.939141,0.05147 -6.531424,0.05147 h -6.531425 z m 8.127384,-18.491699 c 0.977407,-0.209616 2.228168,-1.05721 2.772281,-1.87867 0.580219,-0.875973 0.805978,-1.707936 0.993352,-3.660699 0.122495,-1.276536 0.117075,-1.609314 -0.02767,-1.70114 -0.271235,-0.172068 -1.778938,-0.145206 -1.778938,0.0317 0,0.565855 -0.312402,2.927529 -0.439958,3.325957 -0.366834,1.145831 -1.292983,1.80576 -2.535731,1.806839 -1.51043,0.0013 -7.622672,-0.696228 -8.104579,-0.924907 -0.252209,-0.119686 -0.643236,-0.427935 -0.86895,-0.685009 -0.637241,-0.725777 -0.728971,-1.266272 -0.547525,-3.226176 0.08699,-0.939592 0.134367,-1.729643 0.1053,-1.755669 -0.02907,-0.02603 -0.469218,-0.09065 -0.978107,-0.143613 l -0.92525,-0.09628 -0.117568,1.226266 c -0.223334,2.329449 -0.157687,3.501611 0.243896,4.354721 0.451462,0.959072 1.376616,1.894886 2.280344,2.306615 0.704219,0.320835 1.154324,0.388968 5.839782,0.883975 2.94483,0.311113 3.229158,0.320577 4.089325,0.136109 z m -0.672089,-4.011211 c 0.318754,-0.318754 0.406432,-0.531026 0.406432,-0.983992 0,-1.424503 -1.933784,-1.92994 -2.582713,-0.675048 -0.259895,0.502581 -0.250235,0.89155 0.03409,1.372879 0.470472,0.796446 1.495038,0.933311 2.142188,0.286161 z m -6.28777,-0.765002 c 0.796424,-0.411846 0.955165,-1.530059 0.308945,-2.176279 -1.151969,-1.15197 -2.971498,0.236555 -2.180384,1.663899 0.364662,0.657926 1.165812,0.877275 1.871439,0.51238 z"
       id="path2" /></g></svg>
