<?xml version="1.0" encoding="UTF-8" standalone="no"?>
<!-- Created with Inkscape (http://www.inkscape.org/) -->

<svg
   width="50mm"
   height="50mm"
   viewBox="0 0 50 50"
   version="1.1"
   id="svg1"
   xml:space="preserve"
   inkscape:version="1.4.3 (0d15f75, 2025-12-25)"
   sodipodi:docname="hand-tools.svg"
   xmlns:inkscape="http://www.inkscape.org/namespaces/inkscape"
   xmlns:sodipodi="http://sodipodi.sourceforge.net/DTD/sodipodi-0.dtd"
   xmlns="http://www.w3.org/2000/svg"
   xmlns:svg="http://www.w3.org/2000/svg"><sodipodi:namedview
     id="namedview1"
     pagecolor="#505050"
     bordercolor="#eeeeee"
     borderopacity="1"
     inkscape:showpageshadow="0"
     inkscape:pageopacity="0"
     inkscape:pagecheckerboard="0"
     inkscape:deskcolor="#505050"
     inkscape:document-units="mm"
     inkscape:zoom="1.16"
     inkscape:cx="170.25862"
     inkscape:cy="228.87931"
     inkscape:window-width="1920"
     inkscape:window-height="1009"
     inkscape:window-x="1912"
     inkscape:window-y="-8"
     inkscape:window-maximized="1"
     inkscape:current-layer="layer1" /><defs
     id="defs1" /><g
     inkscape:label="Layer 1"
     inkscape:groupmode="layer"
     id="layer1"><path
       style="fill:#ffffff"
       d="m 7.3244651,45.893418 c -1.560223,-0.419597 -2.905947,-1.834096 -3.230006,-3.39508 -0.228884,-1.10253 0.01519,-2.511743 0.589034,-3.400932 0.139791,-0.216609 1.960632,-2.095202 4.046313,-4.17465 3.5496909,-3.539082 3.8150259,-3.784488 4.1499669,-3.838268 0.288011,-0.04624 0.448037,-0.01477 0.820257,0.161315 0.254341,0.120323 0.571638,0.218768 0.705105,0.218768 0.48603,0 1.421945,-0.783513 1.683411,-1.409289 0.192792,-0.461418 0.144823,-0.780728 -0.190411,-1.267472 -0.219088,-0.318106 -0.292773,-0.501449 -0.257696,-0.641196 0.02702,-0.10764 0.61562,-0.757684 1.308006,-1.444542 1.103957,-1.095145 1.292804,-1.248834 1.534521,-1.248834 0.247734,0 0.566918,0.284438 3.152881,2.809658 1.582483,1.545312 2.912911,2.876307 2.956508,2.957767 0.198477,0.370859 0.09619,0.525391 -1.212894,1.832433 -1.176867,1.175029 -1.318511,1.289932 -1.5875,1.287787 -0.193863,-0.0015 -0.409614,-0.08882 -0.627923,-0.254 -0.445148,-0.336816 -0.891538,-0.340257 -1.410919,-0.01088 -0.49123,0.311529 -0.985947,0.893093 -1.108943,1.303619 -0.08359,0.27901 -0.07205,0.386122 0.08251,0.765829 0.262772,0.645544 0.299149,0.865458 0.19524,1.180308 -0.06607,0.200194 -1.218472,1.403505 -3.966217,4.141431 -4.125954,4.11121 -4.157941,4.138084 -5.2811749,4.437043 -0.577503,0.153708 -1.758509,0.148271 -2.350068,-0.01082 z m 5.0087089,-7.298651 c 1.524112,-1.526691 2.771114,-2.839349 2.771114,-2.917016 0,-0.385395 -0.356452,-0.741846 -0.741847,-0.741846 -0.07767,0 -1.390324,1.247001 -2.917016,2.771114 -3.0154989,3.010404 -3.0145679,3.009151 -2.5679859,3.455734 0.446583,0.446582 0.44533,0.447513 3.4557349,-2.567986 z m 29.441109,2.298026 c -1.48955,-0.617833 -3.34685,-1.968176 -6.26533,-4.555179 -1.230489,-1.090733 -6.098497,-5.92705 -7.509813,-7.460922 l -0.862023,-0.936881 2.85653,-2.855604 2.856531,-2.855604 1.816221,1.727123 c 6.341804,6.030694 10.257784,10.567104 11.141444,12.906632 0.41531,1.099569 0.13287,2.031785 -0.94418,3.116263 -1.06954,1.076919 -2.01938,1.357985 -3.08938,0.914172 z m -1.38318,-5.319913 c 0.24362,-0.170638 0.31276,-0.502233 0.1645,-0.788941 -0.0669,-0.129345 -0.42923,-0.529066 -0.8052,-0.88827 -0.77169,-0.737267 -1.03406,-0.820184 -1.40897,-0.445279 -0.37069,0.370689 -0.28923,0.578637 0.56978,1.454586 0.64951,0.662312 0.82074,0.792929 1.0395,0.792929 0.14404,0 0.34222,-0.05626 0.44039,-0.125025 z m -17.794698,-8.173718 -1.523118,-1.525411 1.481667,-1.461149 c 0.814916,-0.803632 3.324705,-3.284988 5.577307,-5.514126 l 4.09564,-4.052977 0.422988,-1.278963 c 0.232643,-0.70343 0.485104,-1.339698 0.561025,-1.41393 0.151285,-0.147917 3.392309,-1.6007 3.571009,-1.6007 0.0609,0 0.69451,0.579428 1.40804,1.287617 1.05075,1.042888 1.29732,1.332161 1.29732,1.521977 0,0.20043 -0.58308,1.598039 -1.32446,3.174663 l -0.20624,0.43859 -1.33015,0.438381 -1.33015,0.43838 -5.545902,5.536529 c -3.050247,3.045091 -5.565244,5.536529 -5.588881,5.536529 -0.02364,0 -0.72838,-0.686435 -1.566095,-1.52541 z m -0.493058,-5.075203 c -0.46953,-0.499183 -2.0588,-2.44156 -2.903431,-3.548523 -0.01321,-0.01731 -0.340051,0.05789 -0.72632,0.167104 -0.594585,0.168115 -0.897107,0.198655 -1.972308,0.199102 -1.071595,4.46e-4 -1.375577,-0.02977 -1.945797,-0.193397 -3.728374,-1.069887 -5.9579849,-4.366506 -5.5923289,-8.268607 0.05446,-0.581111 0.09413,-0.6977658 0.311162,-0.9147938 0.443004,-0.443003 0.572663,-0.360337 2.5816109,1.6459508 1.463673,1.461735 1.831813,1.786944 2.022836,1.786944 0.192105,0 0.591791,-0.359155 2.25352,-2.024998 1.232151,-1.2352018 2.021155,-2.0896458 2.022967,-2.1907498 0.0019,-0.106671 -0.679273,-0.831584 -1.911056,-2.033736 -1.896916,-1.851286 -1.913783,-1.870889 -1.886803,-2.192922 0.04061,-0.484807 0.28028,-0.617997 1.311664,-0.72894 3.122673,-0.335898 6.147821,1.338137 7.584724,4.19718 0.488698,0.972375 0.676329,1.7790198 0.718832,3.0903328 0.03361,1.036875 0.01301,1.33951 -0.13254,1.947333 -0.09478,0.395817 -0.195844,0.780239 -0.224583,0.854273 -0.03782,0.09742 0.141771,0.284424 0.650103,0.676945 0.631305,0.487477 2.168469,1.756832 2.946021,2.432758 l 0.296334,0.257602 -2.561346,2.570431 -2.561345,2.57043 z"
       id="path2" /></g></svg>
